<?xml version="1.0" standalone="no"?>
<!DOCTYPE svg PUBLIC "-//W3C//DTD SVG 20010904//EN"
 "http://www.w3.org/TR/2001/REC-SVG-20010904/DTD/svg10.dtd">
<svg version="1.0" xmlns="http://www.w3.org/2000/svg"
 width="1500.000000pt" height="600.000000pt" viewBox="0 0 1500.000000 600.000000"
 preserveAspectRatio="xMidYMid meet">

<g transform="translate(0.000000,600.000000) scale(0.100000,-0.100000)"
fill="#000000" stroke="none">
<path d="M5334 5721 c-59 -26 -101 -121 -111 -251 -2 -41 -11 -89 -18 -105 -8
-17 -18 -43 -24 -58 -13 -34 -22 -34 -63 1 -110 93 -192 132 -276 132 -80 -1
-118 -37 -161 -153 -31 -85 -28 -142 13 -219 50 -95 51 -103 21 -130 -14 -13
-38 -30 -53 -38 -71 -40 -199 -139 -269 -208 -87 -86 -128 -141 -149 -201 -13
-37 -12 -44 7 -78 11 -21 31 -48 44 -60 35 -31 124 -47 220 -39 111 9 126 9
136 -1 6 -6 3 -38 -7 -82 -15 -66 -15 -76 -1 -106 33 -69 124 -81 213 -29 25
14 50 24 57 21 7 -2 27 -51 46 -108 63 -196 124 -287 328 -494 95 -97 155
-149 232 -199 58 -38 113 -71 122 -73 40 -11 149 -226 149 -294 0 -90 -26 -98
-300 -99 -191 0 -295 5 -750 36 -225 15 -271 19 -560 48 -85 9 -201 16 -256
16 -56 0 -137 7 -180 14 -44 8 -95 17 -114 19 -86 9 -217 84 -305 173 -73 74
-108 126 -198 294 -111 208 -185 257 -290 190 -54 -34 -89 -86 -125 -185 l-26
-72 -82 -7 c-253 -19 -528 -154 -594 -291 -27 -57 -22 -86 32 -161 36 -49 52
-62 124 -96 46 -21 86 -43 89 -48 3 -6 -6 -15 -20 -20 -95 -36 -245 -193 -245
-256 0 -30 30 -72 67 -95 32 -20 50 -23 114 -22 l76 1 -33 -68 c-61 -123 -41
-201 61 -239 101 -38 165 -23 265 63 30 26 103 77 162 112 59 36 110 69 113
75 4 5 23 18 43 28 90 45 108 55 132 71 26 18 313 163 385 195 22 10 58 27 80
38 57 29 257 35 381 12 237 -45 338 -58 624 -84 304 -27 457 -34 860 -41 398
-7 492 -13 543 -35 48 -20 117 -204 177 -470 58 -259 71 -399 68 -706 -3 -332
5 -365 100 -380 52 -8 71 -4 212 37 164 48 231 61 475 89 291 35 405 46 585
56 265 15 354 48 412 155 33 62 44 126 63 385 8 112 17 213 19 224 3 11 12
155 21 320 9 165 21 317 26 337 19 74 118 115 319 133 135 13 494 84 752 150
139 36 273 70 298 76 25 6 79 21 120 35 41 13 122 37 180 53 58 16 130 36 160
46 30 9 80 23 110 31 30 8 64 18 75 23 46 19 160 55 305 98 85 24 159 49 165
54 5 5 17 9 27 9 10 0 60 14 110 30 231 76 325 104 488 147 201 52 228 59 327
78 40 8 89 19 110 24 21 6 72 11 114 11 66 0 84 -4 140 -32 64 -33 64 -33 209
-32 133 1 157 4 280 36 104 28 160 49 245 94 126 68 144 88 169 194 10 40 33
110 52 157 31 76 33 89 24 125 -9 33 -18 43 -53 58 -23 10 -64 21 -90 25 -58
8 -69 26 -35 63 51 55 88 217 68 293 -15 56 -45 72 -123 67 -73 -5 -168 -47
-295 -132 -139 -92 -162 -98 -162 -38 0 104 -116 231 -189 207 -16 -5 -141
-199 -141 -219 0 -3 -13 -28 -30 -56 -16 -28 -30 -57 -30 -65 0 -8 -4 -15 -9
-15 -5 0 -15 -17 -22 -37 -34 -105 -226 -383 -264 -383 -7 0 -15 -3 -17 -7 -3
-9 -128 -73 -141 -73 -5 0 -33 -11 -63 -25 -57 -26 -489 -179 -659 -234 -55
-17 -108 -36 -117 -41 -10 -6 -25 -10 -33 -10 -8 0 -64 -16 -123 -35 -59 -20
-152 -47 -207 -61 -55 -14 -127 -33 -160 -44 -98 -30 -455 -131 -520 -147 -33
-7 -83 -21 -112 -29 -122 -35 -213 -57 -288 -69 -105 -18 -110 -19 -320 -70
-230 -55 -340 -76 -442 -82 -102 -7 -104 -4 -75 115 11 48 23 114 27 147 9 79
16 89 72 114 155 70 178 86 304 208 69 68 134 123 143 123 19 0 67 -31 196
-126 152 -111 245 -147 290 -111 33 25 60 76 60 110 0 36 -34 139 -55 167 -18
24 -45 89 -45 108 0 10 20 32 44 49 64 45 81 82 81 173 -1 89 -20 135 -92 222
-76 91 -104 131 -101 146 4 17 50 35 131 52 81 16 122 53 122 110 0 45 -18 66
-65 77 -45 10 -49 20 -28 61 26 49 20 119 -13 160 -47 58 -70 65 -239 73 -126
6 -163 11 -195 27 -50 25 -132 95 -186 159 -133 156 -240 229 -419 288 -99 33
-141 62 -177 122 -49 85 -92 86 -164 3 -28 -33 -71 -71 -95 -85 -68 -40 -84
-67 -84 -142 0 -59 -3 -68 -41 -121 -23 -31 -47 -61 -53 -67 -7 -5 -41 -41
-76 -80 -74 -83 -140 -178 -204 -296 -46 -85 -131 -180 -201 -225 -16 -10 -32
-21 -35 -24 -3 -3 -18 -12 -35 -20 -107 -52 -230 -144 -273 -204 -52 -72 -38
-155 37 -216 30 -25 44 -30 91 -30 69 0 192 37 211 63 3 4 12 0 20 -9 9 -11
16 -55 19 -128 6 -114 18 -154 62 -200 31 -33 48 -71 59 -134 22 -121 63 -158
164 -150 70 6 95 29 119 111 9 30 25 65 36 78 l20 24 86 -90 c101 -106 163
-191 189 -260 29 -75 23 -275 -11 -397 -6 -20 -19 -25 -114 -45 -96 -20 -833
-30 -1085 -14 -93 5 -255 15 -360 21 -179 11 -191 13 -211 35 -21 23 -45 113
-60 220 -4 28 -11 58 -16 67 -11 22 8 54 73 123 78 83 98 111 128 177 81 178
82 441 2 636 -32 81 -92 189 -125 229 -27 34 -90 131 -99 155 -5 14 0 19 21
24 71 16 99 31 172 97 86 77 110 114 110 174 0 114 -158 275 -383 391 -19 10
-77 15 -195 18 -92 3 -171 9 -176 14 -5 5 -4 63 4 144 18 194 4 271 -59 315
-33 24 -106 35 -137 22z m2912 -627 c81 -27 153 -90 198 -174 35 -65 55 -169
67 -348 21 -293 22 -424 4 -514 -14 -75 -41 -155 -55 -168 -3 -3 -18 -25 -34
-50 -51 -80 -97 -130 -156 -170 -52 -36 -66 -40 -118 -40 -59 0 -160 26 -201
52 -28 17 -27 59 2 85 12 12 83 57 157 100 152 89 213 131 239 165 29 37 51
85 51 113 0 20 -5 25 -26 25 -24 0 -122 -48 -184 -89 -96 -65 -271 -112 -458
-123 -52 -3 -57 3 -66 90 -4 34 -25 116 -47 181 -35 107 -39 129 -39 218 0
116 22 211 70 298 42 79 65 108 150 193 82 82 137 117 235 148 84 28 144 30
211 8z m-2477 -152 c29 -15 72 -44 95 -65 l41 -38 -48 4 c-49 5 -151 50 -197
88 -24 20 -24 21 -5 35 22 16 39 13 114 -24z m-294 -155 c96 -42 168 -110 248
-235 17 -26 48 -73 69 -104 55 -83 169 -276 191 -323 52 -112 64 -254 28 -345
-81 -205 -168 -296 -248 -258 -16 8 -29 23 -31 36 -4 28 36 99 94 168 75 88
104 182 68 218 -8 9 -18 16 -20 16 -10 0 -119 -87 -144 -115 -86 -94 -201
-152 -279 -140 -112 17 -288 282 -352 531 -50 197 4 377 149 497 54 45 76 58
117 68 47 11 57 10 110 -14z m6585 -907 c40 -40 17 -117 -40 -137 -47 -16
-198 -16 -230 0 -19 9 -26 22 -28 49 -4 44 7 51 98 68 36 6 88 18 115 25 65
18 62 18 85 -5z m-9055 -785 c21 -27 60 -72 86 -100 48 -51 64 -82 51 -101 -7
-11 -129 -48 -193 -59 -26 -5 -40 -2 -52 10 -22 21 -22 20 13 115 17 45 30 98
30 118 0 47 11 86 20 75 3 -4 24 -30 45 -58z m4750 -552 c-4 -27 -11 -64 -16
-84 -31 -125 -67 -362 -83 -549 -2 -25 -6 -54 -9 -65 -4 -11 -11 -40 -17 -65
-6 -25 -21 -79 -34 -120 -13 -41 -27 -91 -30 -111 -3 -20 -15 -55 -27 -78 -35
-72 -64 -78 -614 -116 -115 -8 -245 -15 -289 -15 -77 0 -79 1 -111 34 -28 30
-48 73 -102 221 -13 35 -100 364 -123 465 -63 271 -83 430 -59 446 18 11 260
30 554 43 127 6 246 13 265 16 57 10 312 22 513 24 l188 1 -6 -47z"/>
<path d="M8196 4769 c-15 -11 -37 -40 -49 -62 -43 -81 -22 -292 33 -342 28
-25 98 -25 132 0 15 11 39 47 55 80 24 52 27 73 28 156 0 85 -3 99 -25 132
-13 20 -35 41 -48 46 -38 18 -97 13 -126 -10z"/>
<path d="M7696 4725 c-14 -13 -31 -36 -36 -50 -14 -36 -12 -212 3 -255 15 -44
54 -64 108 -55 115 20 148 150 75 293 -48 94 -97 116 -150 67z"/>
<path d="M5547 4502 c-28 -31 -22 -110 14 -178 38 -73 65 -102 105 -110 69
-14 95 72 58 196 -22 74 -60 110 -117 110 -30 0 -49 -6 -60 -18z"/>
<path d="M5161 4328 c-43 -45 -16 -163 51 -223 42 -38 82 -45 96 -17 33 64 18
152 -37 212 -46 51 -81 60 -110 28z"/>
<path d="M13389 2637 c-64 -34 -76 -64 -53 -135 21 -67 49 -98 98 -107 49 -10
94 18 126 78 l25 47 -20 37 c-20 38 -96 103 -119 103 -7 0 -33 -10 -57 -23z"/>
<path d="M12725 2530 c-39 -15 -50 -40 -49 -109 1 -72 21 -123 53 -141 50 -26
136 5 160 58 15 32 14 86 -3 127 -25 59 -101 90 -161 65z"/>
<path d="M10540 2438 c-49 -50 -66 -87 -156 -343 -91 -257 -107 -415 -59 -595
37 -138 64 -193 107 -211 45 -19 99 -17 131 4 22 14 27 25 27 60 0 24 -10 70
-22 102 -21 54 -23 78 -23 227 1 102 5 175 12 190 6 12 16 41 21 63 6 22 19
72 30 110 61 210 63 220 60 298 -3 72 -6 81 -31 103 -38 32 -58 30 -97 -8z"/>
<path d="M14150 2366 c-144 -60 -213 -110 -253 -185 -47 -85 -35 -156 39 -248
19 -23 34 -48 34 -55 0 -20 -38 -53 -80 -71 -42 -17 -90 -70 -90 -98 0 -11 17
-36 37 -55 36 -35 39 -36 97 -31 131 12 324 148 341 240 12 64 -2 104 -56 160
-30 31 -51 62 -52 77 -2 22 7 27 88 56 54 20 96 42 107 56 20 27 24 105 5 128
-43 55 -124 65 -217 26z"/>
<path d="M13364 2238 c-31 -38 -113 -206 -139 -288 -48 -151 -135 -356 -188
-445 -33 -54 -80 -110 -125 -145 -54 -43 -62 -56 -62 -99 0 -81 38 -113 134
-115 71 -1 110 26 164 111 43 69 154 289 177 353 7 19 31 73 53 120 93 197
136 437 93 518 -19 35 -73 30 -107 -10z"/>
<path d="M12621 2188 c-29 -14 -54 -39 -85 -86 -91 -139 -120 -236 -120 -402
1 -132 22 -203 72 -237 70 -46 106 2 137 182 10 60 22 111 35 140 7 17 16 39
20 50 4 11 19 45 33 76 55 122 56 219 4 266 -34 31 -52 33 -96 11z"/>
<path d="M12022 2096 c-130 -42 -345 -285 -392 -441 -14 -49 0 -91 52 -156 48
-59 73 -69 179 -69 l92 0 -7 -52 c-22 -161 -174 -389 -296 -444 -78 -35 -109
-69 -103 -112 8 -49 42 -67 128 -67 99 1 166 35 270 140 62 61 90 98 117 155
82 172 225 673 235 827 5 70 3 87 -17 127 -33 69 -79 100 -154 103 -33 1 -80
-4 -104 -11z m-42 -275 c15 -30 12 -60 -10 -96 -42 -68 -110 -82 -110 -23 0
31 9 53 44 105 24 37 60 44 76 14z"/>
<path d="M11235 2017 c-98 -38 -122 -54 -187 -131 -108 -127 -178 -268 -178
-359 0 -52 40 -140 83 -185 67 -69 174 -64 354 18 60 28 93 67 93 110 0 63
-17 75 -108 75 -44 0 -78 3 -75 8 2 4 37 29 77 56 94 64 144 114 172 176 40
84 28 171 -30 224 -37 35 -120 38 -201 8z m55 -190 c0 -37 -27 -67 -61 -67
-38 0 -39 24 -2 62 33 35 63 37 63 5z"/>
<path d="M2415 1859 c-187 -136 -370 -380 -488 -649 -9 -19 -26 -60 -40 -90
-59 -134 -79 -210 -75 -289 4 -101 41 -151 111 -151 31 0 131 52 202 105 70
53 179 107 250 124 l50 13 27 -33 c15 -18 44 -64 64 -103 47 -89 88 -142 126
-162 37 -19 55 -13 99 32 32 33 34 39 34 102 0 81 -17 143 -66 243 -49 100
-100 145 -176 155 -85 10 -150 -3 -266 -57 -59 -27 -112 -49 -117 -49 -41 0
92 244 199 367 6 7 11 15 11 18 0 13 133 194 183 249 30 34 67 118 67 153 0
27 -6 37 -32 53 -53 32 -85 26 -163 -31z"/>
<path d="M3576 1839 c-15 -4 -37 -16 -48 -26 -24 -21 -57 -89 -58 -118 0 -45
22 -95 51 -116 27 -19 34 -20 74 -9 139 39 173 240 45 269 -19 4 -48 4 -64 0z"/>
<path d="M9810 1803 c-25 -9 -64 -29 -86 -44 -55 -37 -195 -188 -246 -264 -40
-60 -40 -60 -36 -140 6 -109 24 -142 83 -151 56 -8 123 12 196 61 88 58 174
64 279 21 76 -32 153 -37 177 -13 14 14 14 22 3 61 -7 25 -20 51 -29 59 -22
20 -277 127 -301 127 -10 0 -40 -11 -66 -25 -45 -24 -104 -34 -104 -17 0 41
95 91 195 102 84 10 115 36 115 101 0 65 -22 104 -69 122 -49 20 -53 20 -111
0z"/>
<path d="M8294 1780 c-35 -14 -81 -83 -109 -165 -24 -71 -55 -218 -55 -264 0
-77 28 -158 71 -203 20 -21 44 -38 53 -38 21 0 165 143 216 214 44 61 107 127
142 149 35 22 39 15 73 -106 19 -67 37 -107 56 -128 49 -53 106 -34 160 54 39
65 88 117 109 117 22 0 39 -21 84 -102 55 -100 102 -123 151 -73 30 29 32 62
10 207 -24 155 -63 228 -134 248 -32 9 -44 6 -109 -26 -84 -41 -76 -43 -178
46 -32 28 -69 53 -82 57 -41 10 -93 -14 -191 -87 -51 -38 -98 -70 -102 -70 -5
0 -9 10 -10 23 -1 38 -43 110 -78 134 -37 25 -45 26 -77 13z"/>
<path d="M5337 1497 c-172 -89 -431 -337 -484 -464 -20 -48 -12 -137 18 -195
23 -46 87 -110 134 -136 45 -25 183 -22 263 6 132 45 253 120 346 216 66 69
150 182 170 230 35 85 12 174 -69 264 -74 82 -122 105 -224 110 -82 4 -89 2
-154 -31z m182 -304 c39 -33 22 -52 -191 -216 -59 -45 -87 -57 -134 -57 -52 0
-74 15 -74 52 0 43 80 120 177 171 132 69 184 81 222 50z"/>
<path d="M3290 1469 c-111 -50 -223 -215 -301 -444 -32 -95 -35 -251 -4 -285
34 -38 70 -52 99 -38 36 16 62 59 209 353 16 31 22 43 86 155 61 109 91 173
91 196 0 7 -15 29 -34 48 -40 43 -77 46 -146 15z"/>
<path d="M4000 1483 c-66 -21 -86 -51 -160 -232 -72 -176 -131 -368 -133 -428
-2 -91 55 -141 131 -113 47 17 81 41 82 58 0 19 225 242 244 242 9 0 16 7 16
14 0 41 212 146 379 187 50 12 87 45 97 85 10 39 -15 106 -46 121 -37 19 -135
16 -247 -8 -181 -38 -165 -39 -226 25 -45 48 -58 56 -87 55 -19 0 -42 -3 -50
-6z"/>
<path d="M1505 1327 c-123 -41 -311 -141 -431 -228 -77 -56 -170 -164 -209
-241 -59 -119 -59 -182 1 -242 44 -44 74 -50 217 -43 120 5 205 26 351 88 81
34 159 98 177 147 13 34 2 79 -24 97 -36 25 -134 20 -187 -10 -110 -62 -210
-101 -234 -92 -16 6 -16 9 1 38 35 60 299 229 358 229 26 0 77 29 130 73 40
33 52 79 35 132 -23 69 -82 86 -185 52z"/>
</g>
</svg>
